<svg width="270" height="170" viewBox="0 0 270 170" fill="none" xmlns="http://www.w3.org/2000/svg">
<path d="M0.0511369 114.486C0.0322645 101.156 0.00700475 88.0648 2.62867e-06 74.974C-0.00357124 68.2858 3.63716 64.5246 10.2738 64.4823C22.48 64.4046 34.6867 64.4068 46.8931 64.3544C48.8807 64.3459 49.8457 65.3975 49.9969 67.2425C50.1075 68.5908 50.0396 69.9542 50.0408 71.3109C50.0569 89.5902 50.0725 107.87 50.085 126.149C50.0877 130.148 49.7397 130.349 45.6848 130.516C31.8014 131.088 17.9191 130.446 4.03716 130.588C1.23702 130.617 0.125675 129.578 0.0845978 126.699C0.0276893 122.708 0.0588623 118.717 0.0511369 114.486ZM42.9833 88.2257C41.2407 88.2751 40.9442 89.4376 40.9487 90.8494C40.9641 95.7153 40.9827 100.581 40.9761 105.447C40.9743 106.723 41.3121 107.695 42.7903 107.713C44.3195 107.732 44.5758 106.692 44.5724 105.448C44.5588 100.502 44.563 95.5564 44.5532 90.6107C44.5513 89.6393 44.5603 88.6457 42.9833 88.2257Z" fill="#007C82"/>
<path d="M145.855 154.601C149.89 157.808 154.136 160.274 158.831 162.006C160.648 162.676 162.918 163.329 162.585 165.96C162.265 168.481 159.952 168.858 158.051 169.125C146.486 170.75 135.385 169.225 125.355 163.005C113.881 155.889 108.277 144.98 106.849 131.865C105.803 122.254 106.62 112.575 106.466 102.927C106.423 100.234 107.254 99.5048 109.915 99.5023C127.869 99.485 145.822 99.4859 163.775 99.5005C166.532 99.5028 167.332 100.269 167.349 103.079C167.403 112.335 167.414 121.591 167.395 130.846C167.389 133.67 166.716 134.273 163.765 134.277C154.27 134.291 144.775 134.275 135.279 134.28C132.299 134.282 132.111 134.538 133.189 137.265C135.883 144.083 140.101 149.801 145.855 154.601ZM139.272 108.169C140.229 108.17 141.187 108.173 142.144 108.169C145.973 108.153 149.802 108.144 153.631 108.111C154.818 108.1 155.695 107.6 155.651 106.282C155.612 105.123 154.818 104.636 153.723 104.592C153.165 104.57 152.606 104.566 152.048 104.564C141.677 104.542 131.307 104.521 120.936 104.502C120.378 104.501 119.819 104.512 119.262 104.548C118.369 104.605 117.732 104.987 117.644 105.965C117.554 106.972 117.989 107.728 118.951 107.975C119.709 108.171 120.529 108.172 121.322 108.174C127.146 108.185 132.969 108.174 139.272 108.169Z" fill="#007C82"/>
<path d="M267.719 35.6623C264.728 42.3484 259.561 46.1271 252.827 47.9832C250.985 48.4909 249.113 48.889 247.274 49.4079C239.639 51.5634 236.124 55.8062 236.011 63.696C235.895 71.7134 234.624 79.5447 232.99 87.3467C232.321 90.5403 231.526 91.1493 228.319 91.2114C225.849 91.2592 223.38 91.4178 220.91 91.4396C218.341 91.4622 217.485 90.5895 217.439 88.0007C217.402 85.9274 217.616 83.8315 217.382 81.784C217.034 78.7256 218.29 76.6819 220.608 74.842C224.569 71.6979 227.316 67.5883 228.978 62.8258C230.871 57.403 228.982 53.0472 223.799 50.585C221.115 49.3099 218.202 48.7574 215.343 48.0455C202.745 44.9094 197.374 33.904 198.374 22.1452C198.453 21.215 198.857 20.4496 199.813 20.1341C200.686 19.8458 201.357 20.2595 201.962 20.8343C202.078 20.9441 202.206 21.0484 202.294 21.1783C205.22 25.4743 209.517 26.8229 214.458 27.1271C223.371 27.6758 229.758 32.0231 233.38 40.2725C233.537 40.6297 233.74 40.9667 234.042 41.5429C234.528 40.6157 234.925 39.8815 235.302 39.137C239.04 31.7486 245.076 27.7075 253.296 27.1703C258.45 26.8335 263.049 25.6692 266.157 21.1102C266.719 20.2853 267.58 19.7663 268.644 20.1051C269.746 20.4559 269.908 21.3948 269.956 22.4105C270.166 26.9287 269.665 31.3243 267.719 35.6623Z" fill="#007C82"/>
<path d="M54.1152 111.133C54.1116 105.709 54.0893 100.524 54.113 95.3398C54.125 92.7354 54.9171 91.8657 57.5447 91.8582C71.503 91.8183 85.4614 91.8396 99.4198 91.8243C101.402 91.8221 102.321 92.7296 102.335 94.7333C102.407 105.338 102.548 115.943 102.596 126.548C102.609 129.549 101.683 130.411 98.7287 130.417C85.0894 130.445 71.45 130.452 57.8107 130.45C54.9696 130.449 54.181 129.66 54.1514 126.687C54.1007 121.582 54.1236 116.477 54.1152 111.133ZM59.7762 102.751C59.746 107.681 59.7078 112.611 59.6914 117.541C59.6874 118.758 60.0852 119.83 61.4476 119.984C62.6843 120.123 63.5406 119.23 63.5535 118.157C63.6133 113.153 63.9006 108.141 63.359 103.145C63.2693 102.317 62.8976 101.592 62.0294 101.326C61.0169 101.016 60.3523 101.506 59.7762 102.751Z" fill="#007C82"/>
<path d="M134.721 95.4844C126.34 95.4861 118.199 95.4959 110.057 95.4846C107.253 95.4807 106.429 94.7474 106.415 91.9956C106.374 84.014 106.366 76.0317 106.427 68.0503C106.452 64.7496 107.857 63.8569 112.301 64.1298C113.082 64.1778 113.885 64.3675 114.615 64.6523C131.185 71.1182 147.733 77.6426 164.327 84.0475C166.531 84.8983 167.415 86.0949 167.437 88.4525C167.512 96.4179 167.01 95.484 160.583 95.4845C152.042 95.4851 143.502 95.4844 134.721 95.4844ZM132.854 86.5158C131.743 86.5031 130.621 86.3932 129.523 86.5059C128.479 86.613 127.71 87.2559 127.791 88.4059C127.863 89.4294 128.627 89.9759 129.585 89.982C134.276 90.0116 138.967 89.9975 143.658 89.956C144.655 89.9472 145.338 89.3249 145.407 88.3349C145.471 87.4206 144.799 86.8693 143.98 86.6607C143.298 86.4869 142.568 86.4362 141.86 86.4407C139.001 86.4589 136.141 86.5197 132.854 86.5158Z" fill="#007C82"/>
<path d="M94.4416 88.1259C82.4773 88.1461 70.7464 88.1781 59.0155 88.176C54.6055 88.1752 54.1031 87.6308 54.1031 83.2087C54.1031 78.1014 54.0805 72.9938 54.1141 67.8867C54.1324 65.0999 54.9366 64.3894 57.734 64.3788C70.9727 64.3286 84.2113 64.2637 97.45 64.2056C101.791 64.1866 102.308 64.691 102.313 68.9508C102.319 74.2177 102.283 79.4851 102.345 84.7513C102.37 86.8062 101.664 87.9162 99.4527 87.8819C97.8618 87.8573 96.2677 88.0361 94.4416 88.1259ZM79.8581 74.9245C77.0807 74.927 74.3028 74.9019 71.526 74.9446C70.3001 74.9634 69.2547 75.4369 69.3308 76.8732C69.3998 78.1762 70.4353 78.5181 71.5502 78.5228C75.9145 78.541 80.2791 78.5416 84.6434 78.5207C85.7756 78.5152 86.7512 78.1532 86.7126 76.7827C86.6761 75.4843 85.7287 75.03 84.6126 74.9708C83.1879 74.8953 81.757 74.9346 79.8581 74.9245Z" fill="#007C82"/>
<path d="M195.708 137.664C189.31 142.043 182.929 146.121 176.061 149.368C172.535 151.036 171.466 150.325 171.457 146.382C171.433 137.051 171.421 127.72 171.429 118.389C171.431 115.263 171.894 114.816 175.065 114.813C188.223 114.802 201.382 114.8 214.541 114.817C215.686 114.818 217.064 114.45 217.661 115.922C218.215 117.288 217.229 118.207 216.46 119.085C210.339 126.077 203.413 132.179 195.708 137.664ZM183.907 121.492C183.986 123.065 185.045 123.454 186.357 123.457C190.648 123.466 194.94 123.451 199.231 123.439C200.567 123.435 201.7 123.017 201.636 121.461C201.575 119.95 200.334 119.867 199.176 119.862C194.964 119.846 190.752 119.842 186.54 119.829C185.457 119.826 184.453 119.957 183.907 121.492Z" fill="#007C82"/>
<path d="M57.6955 160.198C49.812 160.625 42.1586 160.605 34.5336 159.782C23.348 158.576 14.945 152.657 8.30978 143.911C6.35558 141.335 4.45625 138.695 3.27982 135.626C6.82384 134.093 8.58228 134.622 10.3722 137.585C14.8109 144.931 20.8541 150.373 29.0245 153.278C29.9216 153.597 30.8574 153.813 31.7846 154.038C31.9919 154.088 32.2386 153.976 33.1155 153.834C26.6274 148.119 20.1741 142.874 16.2274 135.351C20.0075 133.985 21.4992 134.464 23.5545 137.206C30.3411 146.258 38.9351 152.617 50.2475 154.817C51.256 155.013 52.3062 155.059 53.3376 155.064C69.2141 155.134 85.0907 155.172 100.967 155.252C103.996 155.267 107.024 155.451 110.053 155.519C111.063 155.542 111.935 155.816 112.652 156.53C113.351 157.228 113.964 158.004 113.628 159.061C113.266 160.201 112.289 160.196 111.284 160.244C100.996 160.729 90.7043 160.378 80.4151 160.408C72.9185 160.429 65.4213 160.273 57.6955 160.198Z" fill="#007C82"/>
<path d="M195.855 104.889C195.857 100.102 195.947 95.549 195.826 91.0018C195.764 88.6988 196.78 87.4408 198.819 86.7048C202.495 85.3781 206.152 83.9976 209.821 82.6496C211.908 81.8829 212.932 82.3611 213.141 84.5682C213.388 87.1822 213.422 89.8315 213.33 92.4578C213.255 94.5871 214.113 95.2578 216.155 95.1853C219.584 95.0635 223.02 95.1 226.452 95.1507C229.379 95.1939 230.104 96.3136 228.789 98.9124C227.168 102.114 225.367 105.225 223.674 108.391C222.745 110.129 221.351 110.833 219.378 110.816C212.752 110.759 206.125 110.806 199.499 110.8C196.166 110.797 195.856 110.465 195.851 107.043C195.85 106.404 195.853 105.765 195.855 104.889ZM208.583 105.027C209.659 105.923 210.64 105.686 211.49 104.716C212.148 103.965 212.234 103.129 211.468 102.384C208.968 99.9536 206.471 97.5194 203.927 95.1362C203.108 94.3689 202.117 94.0786 201.188 95.0367C200.183 96.0728 200.519 97.0086 201.435 97.9184C203.741 100.208 206.025 102.519 208.583 105.027Z" fill="#007C82"/>
<path d="M186.879 110.801C182.744 110.807 178.84 110.832 174.936 110.812C172.21 110.797 171.472 110.106 171.452 107.456C171.409 101.719 171.454 95.9825 171.392 90.2467C171.37 88.2404 172.108 87.3703 174.216 87.4235C178.914 87.542 183.616 87.4739 188.316 87.5068C190.974 87.5254 191.771 88.2247 191.798 90.8881C191.852 96.305 191.821 101.723 191.769 107.141C191.738 110.317 191.09 110.786 186.879 110.801ZM182.032 96.4033C180.077 98.4956 178.108 100.574 176.175 102.687C175.386 103.55 175.216 104.528 176.066 105.466C176.9 106.385 177.808 106.087 178.604 105.426C181.426 103.082 183.981 100.472 186.247 97.5836C186.898 96.7542 186.829 95.9787 186.074 95.2576C185.368 94.5831 184.572 94.3229 183.709 94.9171C183.191 95.2744 182.747 95.7402 182.032 96.4033Z" fill="#007C82"/>
<path d="M44.4568 142.969C48.9442 145.582 53.7131 146.387 58.6268 146.402C73.701 146.449 88.7755 146.446 103.85 146.396C105.814 146.389 107.307 146.944 108.162 148.731C108.864 150.194 108.479 151.228 106.736 151.453C106.186 151.524 105.621 151.492 105.063 151.492C89.9087 151.483 74.7507 151.258 59.6017 151.531C47.5303 151.75 38.2339 146.767 30.7626 137.706C30.176 136.995 29.3769 136.35 29.4019 135.279C32.1163 133.934 34.833 134.326 36.732 136.337C39.035 138.775 41.35 141.198 44.4568 142.969Z" fill="#007C82"/>
<path d="M153.077 154.706C146.652 150.817 141.871 145.668 138.545 139.308C139.306 138.074 140.263 138.309 141.098 138.306C148.743 138.284 156.388 138.275 164.034 138.296C166.599 138.303 167.381 139.042 167.415 141.513C167.457 144.538 167.388 147.565 167.403 150.591C167.41 152.164 166.74 153.128 165.179 153.524C162.481 154.208 159.804 154.975 157.107 155.667C155.689 156.032 154.46 155.384 153.077 154.706Z" fill="#007C82"/>
<path d="M44.8875 135.725C47.5533 134.503 50.5431 134.106 53.0297 135.206C55.9193 136.485 58.7488 137.025 61.7977 137.02C74.1503 137.003 86.5028 136.988 98.8554 136.963C100.802 136.96 102.722 137.033 104.097 138.695C104.703 139.428 105.365 140.206 104.929 141.272C104.483 142.365 103.487 142.386 102.513 142.404C102.194 142.411 101.875 142.413 101.557 142.413C88.168 142.406 74.7793 142.42 61.3908 142.38C57.2934 142.369 53.29 141.738 49.5925 139.844C47.7451 138.898 45.9682 137.819 44.8875 135.725Z" fill="#007C82"/>
<path d="M60.1733 41.7673C57.5307 43.4347 56.0215 45.7032 55.3784 48.5518C54.9872 50.2847 54.0967 51.6014 52.2075 51.5319C50.4672 51.4679 49.6796 50.2128 49.2831 48.5549C48.049 43.3934 45.2946 39.5781 39.8274 38.2582C38.4477 37.9251 37.5 37.079 37.7085 35.5334C37.9331 33.8683 39.1517 33.3031 40.6582 33.3976C44.1629 33.6174 47.1165 35.057 49.4306 37.7023C50.5251 38.9534 51.5045 40.3051 52.5452 41.6229C53.7469 41.1413 54.1569 40.0001 54.9591 39.2597C57.5773 36.8429 60.6086 35.3676 64.204 35.3592C65.8082 35.3555 67.3004 35.8813 67.3135 37.8955C67.3264 39.8786 66.1027 40.7594 64.2536 40.8035C62.874 40.8365 61.5546 41.0082 60.1733 41.7673Z" fill="#007C82"/>
<path d="M38.4952 60.5151C37.7071 60.5117 37.1497 60.5128 36.5926 60.5039C34.8763 60.4765 33.5395 59.8721 33.5553 57.933C33.5707 56.0233 34.8214 55.3875 36.5971 55.402C40.4979 55.4339 44.3992 55.4079 48.3002 55.4079C54.7489 55.4079 61.1979 55.4411 67.6462 55.3908C69.4784 55.3765 70.9722 55.8426 70.9727 57.8755C70.9732 59.9126 69.3787 60.4291 67.6255 60.4352C57.9924 60.4684 48.3592 60.4897 38.4952 60.5151Z" fill="#007C82"/>
<circle cx="233.5" cy="6.5" r="6.5" fill="#FF4757"/>
</svg>
