<svg width="792" height="324" viewBox="0 0 792 324" fill="none" xmlns="http://www.w3.org/2000/svg">
<path d="M582.235 204.31C575.417 215.989 568.764 227.343 562.165 238.728C558.135 245.68 552.471 249.475 544.132 248.768C540.656 248.474 537.136 248.725 533.637 248.667C524.676 248.519 517.738 242.509 516.439 233.693C516.15 231.727 516.125 229.71 516.125 227.716C516.117 186.056 516.141 144.396 516.131 102.735C516.127 89.8624 522.444 83.4382 535.441 83.2902C539.264 83.2467 543.127 82.9176 546.853 84.1341C553.971 86.4575 558.136 92.9962 558.187 102.278C558.3 122.941 558.314 143.605 558.368 164.268C558.372 166.064 558.368 167.86 558.368 170.294C561.208 169.062 561.957 166.968 562.982 165.234C576.377 142.577 589.718 119.888 603.11 97.2295C605.056 93.9368 606.923 90.5497 609.708 87.8559C617.407 80.4115 637.196 81.3834 644.149 89.5499C646.94 92.8279 648.451 96.6399 648.45 100.995C648.447 144.822 648.486 188.649 648.409 232.476C648.392 242.241 641.751 248.596 631.983 248.675C629.15 248.697 626.317 248.699 623.484 248.693C613.145 248.671 606.836 242.32 606.812 231.82C606.766 211.823 606.78 191.826 606.721 171.829C606.714 169.753 607.325 167.488 604.983 165.126C597.376 178.233 589.9 191.115 582.235 204.31Z" fill="#1A2332"/>
<path d="M370.823 201.286C370.821 168.3 370.816 135.814 370.819 103.329C370.821 89.1619 376.737 83.2043 390.777 83.2111C392.776 83.212 394.783 83.1423 396.772 83.2886C406.038 83.9697 412.453 90.786 412.488 100.029C412.536 112.857 412.5 125.684 412.53 138.512C412.534 140.468 412.7 142.423 412.796 144.49C415.372 144.188 416.092 142.331 417.23 141.025C432.22 123.821 447.132 106.548 462.196 89.4086C467.743 83.0966 479.058 81.0069 486.288 84.5637C496.099 89.3897 500.883 97.7912 499.362 107.522C498.846 110.825 496.77 113.209 494.664 115.596C480.67 131.455 466.811 147.435 452.612 163.109C449.411 166.642 450.118 168.58 453.016 171.612C467.286 186.539 481.244 201.766 495.557 216.652C501.208 222.53 500.679 229.588 498.48 235.758C496.057 242.557 490.351 247.417 482.557 248.64C482.068 248.717 481.55 248.608 481.06 248.682C472.082 250.032 465.563 246.922 459.443 239.829C446.068 224.329 431.686 209.696 417.685 194.738C416.471 193.441 415.529 191.783 413.309 191.019C411.902 204.052 412.05 217.01 412.77 229.849C413.464 242.245 404.59 250.052 393.496 249.204C390.679 248.989 387.816 249.196 385.027 248.817C376.648 247.679 370.946 241.243 370.855 232.772C370.744 222.445 370.825 212.115 370.823 201.286Z" fill="#1A2332"/>
<path d="M281.369 15.0026C299.445 28.4794 310.259 46.0352 313.922 67.9259C314.386 70.6973 314.454 73.5597 314.455 76.3801C314.485 132.693 314.54 189.006 314.458 245.319C314.403 282.64 285.551 316.059 248.746 321.652C236.847 323.46 224.832 323.397 212.867 323.107C196.209 322.703 179.568 322.925 162.914 323.075C139.598 323.283 116.276 322.922 92.9571 322.719C83.8205 322.639 74.6975 323.195 65.5559 321.772C31.7542 316.511 3.37317 285.902 0.711365 251.878C0.138024 244.55 0.0227513 237.249 0.0194783 229.928C-0.00255467 180.612 0.0283587 131.297 1.57481e-05 81.9818C-0.0230403 41.8601 25.272 10.2193 64.4064 1.64286C69.4389 0.539955 74.573 -0.0023414 79.7613 7.59808e-06C131.076 0.0233236 182.391 0.00934607 233.705 0.00864407C251.033 0.00843007 266.847 4.86396 281.369 15.0026ZM29.5658 286.378C42.1594 300.791 57.8065 309.083 77.141 309.136C130.47 309.284 183.802 309.546 237.127 309.089C272.508 308.786 300.8 279.332 300.823 243.978C300.858 189.148 300.858 134.319 300.824 79.4899C300.801 43.3706 271.161 13.6864 234.93 13.6205C183.1 13.5263 131.271 13.5255 79.4413 13.5847C48.6112 13.62 21.3788 35.035 15.5647 65.2632C12.0707 83.4287 13.495 102.13 13.7571 120.589C14.3177 160.082 14.3168 199.576 13.8199 239.062C13.5985 256.656 17.7298 272.291 29.5658 286.378Z" fill="#1A2332"/>
<path d="M704.857 212.286C704.85 184.808 704.745 157.829 704.931 130.852C704.963 126.103 703.611 124.347 698.731 124.56C690.919 124.901 683.08 124.71 675.254 124.615C665.677 124.498 659.316 118.3 659.022 108.699C658.895 104.557 658.557 100.381 659.456 96.2546C661.086 88.7766 666.661 83.9794 674.245 83.9661C707.884 83.9068 741.524 83.9068 775.163 83.9444C782.728 83.9528 789.015 88.9414 790.658 96.2964C791.906 101.883 791.793 107.576 790.442 113.128C788.84 119.709 782.68 124.497 775.805 124.607C767.98 124.732 760.145 124.815 752.326 124.564C747.846 124.42 746.32 125.846 746.347 130.54C746.537 163.845 746.451 197.152 746.429 230.458C746.421 242.905 740.542 248.037 728.075 248.838C707.794 250.14 703.729 240.145 704.817 225.272C705.12 221.131 704.86 216.949 704.857 212.286Z" fill="#1A2332"/>
<path d="M25.2024 177.772C25.1836 164.441 25.1583 151.351 25.1513 138.26C25.1477 131.572 28.7885 127.81 35.4251 127.768C47.6313 127.69 59.838 127.693 72.0444 127.64C74.032 127.632 74.997 128.683 75.1482 130.528C75.2588 131.877 75.1909 133.24 75.1921 134.597C75.2082 152.876 75.2238 171.155 75.2363 189.435C75.239 193.434 74.891 193.635 70.8361 193.802C56.9527 194.374 43.0704 193.731 29.1885 193.874C26.3883 193.902 25.277 192.864 25.2359 189.985C25.179 185.994 25.2102 182.002 25.2024 177.772ZM68.1346 151.511C66.392 151.561 66.0956 152.723 66.1 154.135C66.1154 159.001 66.134 163.867 66.1274 168.733C66.1256 170.009 66.4634 170.981 67.9416 170.999C69.4708 171.018 69.7271 169.978 69.7237 168.734C69.7101 163.788 69.7143 158.842 69.7045 153.896C69.7026 152.925 69.7116 151.931 68.1346 151.511Z" fill="#007C82"/>
<path d="M171.007 217.886C175.041 221.094 179.287 223.559 183.982 225.291C185.799 225.962 188.069 226.614 187.736 229.246C187.417 231.767 185.103 232.144 183.202 232.411C171.637 234.036 160.536 232.511 150.507 226.291C139.033 219.175 133.428 208.265 132 195.151C130.954 185.54 131.772 175.861 131.617 166.213C131.574 163.519 132.405 162.791 135.067 162.788C153.02 162.771 170.973 162.772 188.927 162.786C191.683 162.789 192.484 163.555 192.5 166.365C192.554 175.62 192.565 184.876 192.546 194.132C192.541 196.956 191.867 197.559 188.917 197.563C179.421 197.577 169.926 197.561 160.431 197.566C157.45 197.567 157.263 197.823 158.34 200.55C161.034 207.369 165.253 213.087 171.007 217.886ZM164.423 171.455C165.381 171.455 166.338 171.459 167.295 171.455C171.124 171.439 174.953 171.43 178.782 171.396C179.969 171.386 180.847 170.886 180.802 169.568C180.763 168.409 179.969 167.921 178.874 167.878C178.316 167.856 177.758 167.851 177.199 167.85C166.829 167.828 156.458 167.806 146.087 167.788C145.529 167.787 144.97 167.798 144.414 167.833C143.52 167.891 142.884 168.273 142.796 169.251C142.705 170.258 143.14 171.014 144.102 171.261C144.86 171.456 145.681 171.458 146.474 171.46C152.297 171.47 158.121 171.459 164.423 171.455Z" fill="#007C82"/>
<path d="M292.871 98.9481C289.88 105.634 284.712 109.413 277.978 111.269C276.136 111.777 274.264 112.175 272.426 112.694C264.79 114.849 261.275 119.092 261.162 126.982C261.047 134.999 259.775 142.83 258.141 150.633C257.472 153.826 256.678 154.435 253.47 154.497C251 154.545 248.531 154.704 246.061 154.725C243.492 154.748 242.636 153.875 242.59 151.286C242.554 149.213 242.767 147.117 242.534 145.07C242.185 142.011 243.442 139.968 245.759 138.128C249.72 134.984 252.467 130.874 254.129 126.112C256.022 120.689 254.133 116.333 248.951 113.871C246.267 112.596 243.354 112.043 240.494 111.331C227.896 108.195 222.526 97.1898 223.525 85.431C223.604 84.5007 224.009 83.7354 224.965 83.4198C225.838 83.1316 226.509 83.5453 227.114 84.1201C227.229 84.2299 227.357 84.3342 227.445 84.464C230.372 88.76 234.669 90.1087 239.609 90.4128C248.523 90.9616 254.91 95.3088 258.532 103.558C258.689 103.915 258.891 104.252 259.193 104.829C259.679 103.902 260.076 103.167 260.453 102.423C264.192 95.0344 270.227 90.9932 278.448 90.456C283.602 90.1193 288.201 88.955 291.308 84.396C291.871 83.571 292.731 83.052 293.795 83.3909C294.897 83.7417 295.06 84.6806 295.107 85.6963C295.317 90.2144 294.816 94.6101 292.871 98.9481Z" fill="#007C82"/>
<path d="M79.2665 174.419C79.2629 168.995 79.2406 163.81 79.2644 158.626C79.2763 156.021 80.0684 155.151 82.696 155.144C96.6543 155.104 110.613 155.125 124.571 155.11C126.554 155.108 127.472 156.015 127.486 158.019C127.558 168.624 127.7 179.228 127.747 189.833C127.76 192.835 126.834 193.697 123.88 193.703C110.241 193.731 96.6013 193.738 82.962 193.735C80.1209 193.735 79.3323 192.946 79.3028 189.973C79.252 184.868 79.2749 179.763 79.2665 174.419ZM84.9275 166.036C84.8973 170.967 84.8591 175.897 84.8427 180.827C84.8387 182.043 85.2365 183.116 86.5989 183.269C87.8356 183.409 88.692 182.516 88.7048 181.442C88.7646 176.439 89.0519 171.426 88.5103 166.431C88.4206 165.603 88.0489 164.878 87.1807 164.612C86.1682 164.302 85.5037 164.792 84.9275 166.036Z" fill="#007C82"/>
<path d="M159.873 158.77C151.492 158.772 143.35 158.782 135.209 158.77C132.404 158.766 131.58 158.033 131.566 155.281C131.526 147.3 131.517 139.317 131.578 131.336C131.604 128.035 133.009 127.143 137.453 127.416C138.233 127.464 139.036 127.653 139.766 127.938C156.336 134.404 172.884 140.928 189.478 147.333C191.682 148.184 192.566 149.381 192.588 151.738C192.663 159.704 192.161 158.77 185.734 158.77C177.194 158.771 168.653 158.77 159.873 158.77ZM158.005 149.802C156.894 149.789 155.773 149.679 154.674 149.792C153.63 149.899 152.861 150.542 152.942 151.692C153.014 152.715 153.779 153.262 154.736 153.268C159.427 153.297 164.118 153.283 168.809 153.242C169.806 153.233 170.489 152.611 170.558 151.621C170.623 150.706 169.95 150.155 169.131 149.946C168.449 149.773 167.719 149.722 167.011 149.726C164.152 149.745 161.293 149.805 158.005 149.802Z" fill="#007C82"/>
<path d="M119.593 151.412C107.629 151.432 95.8977 151.464 84.1668 151.462C79.7568 151.461 79.2544 150.917 79.2544 146.494C79.2544 141.387 79.2318 136.28 79.2654 131.172C79.2837 128.386 80.0879 127.675 82.8853 127.665C96.124 127.614 109.363 127.549 122.601 127.491C126.942 127.472 127.459 127.977 127.464 132.237C127.47 137.503 127.434 142.771 127.496 148.037C127.521 150.092 126.816 151.202 124.604 151.168C123.013 151.143 121.419 151.322 119.593 151.412ZM105.009 138.21C102.232 138.213 99.4541 138.188 96.6773 138.23C95.4514 138.249 94.406 138.723 94.4821 140.159C94.5511 141.462 95.5866 141.804 96.7015 141.809C101.066 141.827 105.43 141.827 109.795 141.806C110.927 141.801 111.903 141.439 111.864 140.068C111.827 138.77 110.88 138.316 109.764 138.257C108.339 138.181 106.908 138.22 105.009 138.21Z" fill="#007C82"/>
<path d="M220.859 200.95C214.461 205.329 208.08 209.406 201.212 212.654C197.686 214.321 196.618 213.611 196.608 209.667C196.585 200.336 196.573 191.006 196.58 181.675C196.583 178.548 197.046 178.102 200.216 178.099C213.375 178.088 226.534 178.085 239.693 178.103C240.837 178.104 242.215 177.735 242.812 179.208C243.366 180.574 242.38 181.493 241.612 182.371C235.49 189.363 228.564 195.465 220.859 200.95ZM209.058 184.777C209.137 186.351 210.196 186.74 211.508 186.743C215.8 186.751 220.091 186.737 224.382 186.725C225.719 186.721 226.851 186.303 226.787 184.746C226.726 183.236 225.485 183.153 224.327 183.148C220.115 183.131 215.903 183.128 211.691 183.115C210.609 183.112 209.604 183.242 209.058 184.777Z" fill="#007C82"/>
<path d="M82.8469 223.483C74.9633 223.911 67.31 223.891 59.6849 223.068C48.4994 221.862 40.0963 215.943 33.4611 207.197C31.5069 204.621 29.6076 201.981 28.4311 198.912C31.9751 197.378 33.7336 197.908 35.5235 200.87C39.9622 208.217 46.0054 213.659 54.1758 216.564C55.0729 216.883 56.0087 217.098 56.9359 217.323C57.1432 217.374 57.3899 217.262 58.2668 217.12C51.7787 211.405 45.3254 206.16 41.3787 198.637C45.1588 197.27 46.6505 197.75 48.7058 200.491C55.4924 209.544 64.0864 215.903 75.3988 218.103C76.4073 218.299 77.4576 218.345 78.4889 218.35C94.3654 218.419 110.242 218.457 126.118 218.538C129.147 218.553 132.175 218.737 135.204 218.805C136.214 218.827 137.087 219.102 137.803 219.816C138.503 220.513 139.116 221.29 138.78 222.347C138.418 223.487 137.44 223.482 136.435 223.53C126.147 224.014 115.856 223.664 105.566 223.693C98.0698 223.715 90.5726 223.559 82.8469 223.483Z" fill="#007C82"/>
<path d="M221.006 168.175C221.009 163.388 221.099 158.835 220.977 154.288C220.915 151.985 221.931 150.727 223.971 149.991C227.647 148.664 231.304 147.283 234.972 145.935C237.059 145.169 238.083 145.647 238.292 147.854C238.539 150.468 238.574 153.117 238.481 155.744C238.407 157.873 239.265 158.544 241.306 158.471C244.735 158.349 248.172 158.386 251.603 158.436C254.53 158.48 255.256 159.599 253.94 162.198C252.319 165.4 250.518 168.51 248.826 171.677C247.897 173.415 246.503 174.119 244.529 174.102C237.903 174.045 231.277 174.092 224.651 174.086C221.317 174.083 221.007 173.751 221.002 170.328C221.001 169.69 221.004 169.051 221.006 168.175ZM233.734 168.313C234.81 169.209 235.791 168.971 236.641 168.002C237.299 167.251 237.385 166.415 236.619 165.67C234.119 163.239 231.622 160.805 229.078 158.422C228.259 157.655 227.268 157.364 226.339 158.322C225.334 159.359 225.67 160.294 226.586 161.204C228.892 163.494 231.177 165.805 233.734 168.313Z" fill="#007C82"/>
<path d="M212.03 174.087C207.895 174.092 203.991 174.118 200.087 174.097C197.361 174.083 196.623 173.392 196.603 170.741C196.56 165.005 196.605 159.268 196.543 153.532C196.521 151.526 197.259 150.656 199.367 150.709C204.065 150.828 208.767 150.76 213.468 150.793C216.125 150.811 216.922 151.51 216.949 154.174C217.004 159.591 216.972 165.009 216.92 170.426C216.889 173.603 216.242 174.071 212.03 174.087ZM207.183 159.689C205.229 161.781 203.259 163.86 201.327 165.972C200.537 166.836 200.367 167.814 201.217 168.751C202.051 169.671 202.959 169.373 203.755 168.712C206.577 166.368 209.132 163.758 211.398 160.869C212.049 160.04 211.98 159.264 211.226 158.543C210.52 157.869 209.723 157.609 208.861 158.203C208.342 158.56 207.898 159.026 207.183 159.689Z" fill="#007C82"/>
<path d="M69.6081 206.255C74.0955 208.868 78.8644 209.673 83.7781 209.688C98.8523 209.734 113.927 209.732 129.001 209.682C130.966 209.675 132.458 210.23 133.314 212.016C134.015 213.48 133.631 214.514 131.887 214.739C131.337 214.81 130.772 214.778 130.214 214.778C115.06 214.769 99.902 214.543 84.753 214.817C72.6816 215.035 63.3852 210.053 55.9139 200.992C55.3273 200.281 54.5282 199.635 54.5532 198.565C57.2676 197.22 59.9843 197.612 61.8833 199.622C64.1863 202.061 66.5013 204.483 69.6081 206.255Z" fill="#007C82"/>
<path d="M178.228 217.992C171.804 214.103 167.023 208.953 163.696 202.594C164.457 201.36 165.415 201.595 166.249 201.592C173.894 201.57 181.54 201.561 189.185 201.582C191.75 201.589 192.533 202.328 192.567 204.798C192.608 207.824 192.54 210.851 192.554 213.877C192.562 215.45 191.891 216.414 190.331 216.809C187.632 217.494 184.955 218.26 182.259 218.953C180.84 219.317 179.611 218.67 178.228 217.992Z" fill="#007C82"/>
<path d="M70.0388 199.011C72.7046 197.789 75.6944 197.392 78.181 198.492C81.0706 199.77 83.9001 200.311 86.949 200.306C99.3016 200.289 111.654 200.274 124.007 200.249C125.954 200.245 127.874 200.318 129.248 201.981C129.854 202.714 130.516 203.492 130.081 204.558C129.634 205.65 128.638 205.672 127.664 205.69C127.345 205.696 127.027 205.699 126.708 205.699C113.319 205.692 99.9306 205.705 86.5421 205.666C82.4447 205.654 78.4413 205.024 74.7438 203.13C72.8964 202.184 71.1195 201.105 70.0388 199.011Z" fill="#007C82"/>
<path d="M85.3246 105.053C82.682 106.721 81.1728 108.989 80.5297 111.838C80.1385 113.571 79.248 114.887 77.3588 114.818C75.6185 114.754 74.8309 113.499 74.4344 111.841C73.2003 106.679 70.4459 102.864 64.9787 101.544C63.599 101.211 62.6513 100.365 62.8598 98.8191C63.0844 97.1541 64.303 96.5889 65.8095 96.6834C69.3142 96.9032 72.2678 98.3428 74.5819 100.988C75.6764 102.239 76.6558 103.591 77.6965 104.909C78.8982 104.427 79.3082 103.286 80.1104 102.545C82.7286 100.129 85.7599 98.6534 89.3553 98.645C90.9595 98.6413 92.4517 99.167 92.4648 101.181C92.4777 103.164 91.254 104.045 89.4049 104.089C88.0253 104.122 86.7059 104.294 85.3246 105.053Z" fill="#007C82"/>
<path d="M63.6465 123.801C62.8584 123.797 62.3011 123.799 61.7439 123.79C60.0276 123.762 58.6908 123.158 58.7066 121.219C58.722 119.309 59.9727 118.673 61.7484 118.688C65.6492 118.72 69.5505 118.694 73.4515 118.694C79.9003 118.694 86.3492 118.727 92.7975 118.677C94.6297 118.662 96.1235 119.128 96.124 121.161C96.1245 123.198 94.53 123.715 92.7768 123.721C83.1437 123.754 73.5105 123.775 63.6465 123.801Z" fill="#007C82"/>
<circle cx="258.651" cy="69.7858" r="6.5" fill="#FF4757"/>
</svg>
